<?xml version="1.0" encoding="iso-8859-1"?>
<!DOCTYPE svg PUBLIC "-//W3C//DTD SVG 1.1//EN" "http://www.w3.org/Graphics/SVG/1.1/DTD/svg11.dtd">
<svg 
 version="1.1" xmlns="http://www.w3.org/2000/svg" xmlns:xlink="http://www.w3.org/1999/xlink" x="0px" y="0px" width="512px"
	 height="512px" viewBox="0 0 512 512" enable-background="new 0 0 512 512" xml:space="preserve"
><g id="e6c6b53d3c8160b22dad35a0f70b45fe"><g></g><path display="inline" d="M218.594,238.986l16.459,31.326l-25.271,4.458l4.84-35.368c0.416-3.009,0.487-5.98,0.2-8.912l0.553-0.098
		C216.307,233.777,217.384,236.642,218.594,238.986z M511.5,256c0,25.439-42.38,43.879-49.832,66.834
		c-7.727,23.795,15.453,63.559,1.044,83.361c-14.559,20.003-59.642,10.176-79.644,24.73c-19.804,14.418-24.303,60.403-48.098,68.13
		c-22.959,7.452-53.529-26.864-78.971-26.864c-25.442,0-56.016,34.316-78.971,26.864c-23.795-7.727-28.294-53.712-48.102-68.125
		c-19.998-14.56-65.081-4.732-79.64-24.735c-14.414-19.803,8.77-59.571,1.04-83.361C42.879,299.879,0.5,281.439,0.5,256
		c0-25.442,42.379-43.876,49.832-66.832c7.727-23.795-15.453-63.561-1.043-83.366C63.847,85.8,108.93,95.628,128.932,81.074
		c19.803-14.416,24.302-60.405,48.097-68.129C199.989,5.49,230.558,39.809,256,39.809c25.441,0,56.016-34.318,78.971-26.864
		c23.795,7.724,28.294,53.713,48.098,68.129c20.002,14.555,65.085,4.724,79.644,24.729c14.414,19.803-8.771,59.573-1.044,83.366
		C469.12,212.124,511.5,230.558,511.5,256z M170.313,293.366c-0.703-3.992-1.917-7.386-3.643-10.18
		c-1.726-2.795-3.917-5.174-6.583-7.115c-2.662-1.942-5.727-3.568-9.195-4.878c-3.48-1.298-7.335-2.434-11.573-3.386
		c-3.106-0.686-5.905-1.389-8.4-2.112c-2.491-0.715-4.645-1.522-6.458-2.408c-1.817-0.886-3.272-1.908-4.379-3.061
		c-1.098-1.155-1.796-2.563-2.087-4.214c-0.266-1.516-0.112-2.951,0.449-4.304c0.565-1.354,1.48-2.591,2.753-3.715
		c1.272-1.123,2.894-2.106,4.878-2.955c1.971-0.849,4.233-1.493,6.753-1.938c1.842-0.325,3.801-0.526,5.897-0.613
		c2.087-0.085,4.216-0.019,6.383,0.185c2.17,0.214,4.308,0.584,6.412,1.108c2.104,0.528,4.084,1.223,5.943,2.08l-3.635-20.593
		c-3.581-0.692-7.406-1.002-11.486-0.919c-4.083,0.079-8.695,0.574-13.835,1.48c-5.235,0.923-10.093,2.358-14.58,4.308
		c-4.487,1.953-8.292,4.437-11.436,7.448c-3.136,3.015-5.406,6.556-6.824,10.615s-1.667,8.662-0.761,13.804
		c1.161,6.566,4.038,11.835,8.65,15.802c4.604,3.968,11.041,6.879,19.325,8.733c3.248,0.707,6.284,1.422,9.116,2.154
		c2.819,0.735,5.306,1.58,7.439,2.523c2.129,0.948,3.884,2.084,5.248,3.406c1.368,1.322,2.225,2.944,2.566,4.874
		c0.25,1.422,0.137,2.803-0.333,4.142c-0.478,1.339-1.339,2.578-2.574,3.718c-1.248,1.147-2.87,2.154-4.87,3.027
		c-2,0.873-4.396,1.556-7.194,2.05c-4.783,0.845-9.661,0.836-14.634-0.012c-4.978-0.849-9.765-2.604-14.347-5.244l3.888,22.036
		c3.905,1.206,8.379,1.838,13.436,1.892c5.049,0.055,10.284-0.395,15.703-1.352c5.282-0.931,10.201-2.32,14.784-4.166
		c4.57-1.847,8.442-4.246,11.619-7.194c3.168-2.953,5.473-6.479,6.899-10.592C171.058,303.688,171.287,298.881,170.313,293.366z
		 M278.302,302.943l-52.534-92.56l-26.377,4.649l-18.535,105.093l24.103-4.25l3.086-23.191l35.115-6.196l10.899,20.729
		L278.302,302.943z M349.442,290.401l-3.182-18.044l-36.565,6.445l-14.23-80.71l-22.244,3.921l17.411,98.754L349.442,290.401z
		 M421.963,277.613l-3.182-18.039l-36.985,6.521l-3.984-22.589l32.3-5.697l-3.182-18.042l-32.3,5.695l-3.871-21.971l34.711-6.12
		l-3.193-18.112l-56.96,10.043l17.416,98.758L421.963,277.613z"></path></g></svg>