<?xml version="1.0" encoding="iso-8859-1"?>
<!DOCTYPE svg PUBLIC "-//W3C//DTD SVG 1.1//EN" "http://www.w3.org/Graphics/SVG/1.1/DTD/svg11.dtd">
<svg 
 version="1.1" xmlns="http://www.w3.org/2000/svg" xmlns:xlink="http://www.w3.org/1999/xlink" x="0px" y="0px" width="512px"
	 height="512px" viewBox="0 0 512 512" enable-background="new 0 0 512 512" xml:space="preserve"
><g id="e6c6b53d3c8160b22dad35a0f70b6a4f"><g></g><path display="inline" d="M267.69,265.867c0,0.104,0,0.209,0,0.304c0.004,7.299-5.468,13.088-15.049,15.518
		c0-9.165,0-18.338,0-27.502C264.501,255.609,267.69,259.185,267.69,265.867z M226.045,223.4c0,0.103,0,0.202,0,0.306
		c0,6.229,2.895,9.846,14.589,11.296c0-8.917,0-17.831,0-26.75C231.058,210.687,226.045,216.718,226.045,223.4z M324.727,215.548
		c14.115-1.684,28.24-2.939,42.36-3.558c0,13.577,0,27.151,0,40.729c-14.12,0.617-28.245,1.879-42.36,3.558
		c-7.56,47.203-40.421,86.796-79.835,93.946c-39.414,7.147-72.28-23.232-79.835-68.986c-14.116,1.684-28.24,2.942-42.36,3.559
		c0-13.578,0-27.151,0-40.729c14.12-0.618,28.245-1.879,42.36-3.558c7.555-47.203,40.425-86.796,79.835-93.947
		C284.306,139.415,317.172,169.792,324.727,215.548z M285.62,261.832c0-16.257-9.881-24.003-32.979-25.737
		c0-9.629,0-19.253,0-28.878c7.143,0.276,13.977,2.284,20.668,6.177c2.838-5.239,5.672-10.471,8.514-15.697
		c-8.349-4.869-17.475-7.262-28.57-6.697c0-3.038,0-6.08,0-9.119c-4.409,0.768-8.822,1.543-13.226,2.313c0,2.938,0,5.875,0,8.813
		c-18.993,4.862-31.924,18.064-31.92,34.472c0,0.1,0,0.203,0,0.304c0,17.017,10.336,23.733,32.527,25.612c0,9.931,0,19.859,0,29.792
		c-9.88,0.204-18.086-2.929-26.756-8.475c-3.241,5.146-6.474,10.289-9.716,15.422c10.332,6.548,22.643,9.76,35.865,8.965
		c0,5.068,0,10.133,0,15.196c4.404-0.772,8.817-1.54,13.226-2.313c0-5.012,0-10.028,0-15.044
		c19.306-5.061,32.367-18.238,32.367-34.802C285.62,262.031,285.62,261.928,285.62,261.832z M511.5,133.804
		c0,90.289,0,180.577,0,270.866c-37.557-13.145-75.123-17.952-112.68-17.956c-102.612-0.005-205.237,35.916-307.854,35.916
		c-22.755,0-45.502-1.805-68.249-6.118v-18.924c-7.405-1.918-14.813-4.044-22.217-6.635c0-95.04,0-190.08,0-285.121
		c162.925,57.023,325.857-57.027,488.782,0c0,9.323,0,18.648,0,27.972H511.5z M468.914,179.294
		c-4.058,0.034-8.311-0.378-12.724-1.335c-26.722-5.804-48.375-28.047-48.375-54.871c0-4.413,0.621-8.639,1.745-12.623
		c-109.781-6.958-219.558,38.423-329.338,31.465c1.12,4.129,1.745,8.42,1.745,12.835c0,26.6-21.658,47.667-48.375,41.867
		c-4.413-0.959-8.67-2.617-12.723-4.813c0,41.892,0,83.781,0,125.669c4.058-0.03,8.31,0.382,12.723,1.336
		c26.713,5.807,48.371,28.05,48.375,54.876c0,4.408-0.621,8.635-1.745,12.618c109.781,6.961,219.557-38.42,329.338-31.46
		c-1.111-4.131-1.745-8.427-1.745-12.836c-0.004-26.604,21.662-47.672,48.375-41.865c4.413,0.959,8.666,2.612,12.724,4.816
		C468.914,263.073,468.914,221.185,468.914,179.294z"></path></g></svg>